<svg width="24" height="24" viewBox="0 0 24 24" fill="none" xmlns="http://www.w3.org/2000/svg">
<path d="M21.4045 16.6618C22.1485 17.0306 23.0604 16.7284 23.3333 15.9442C24.0967 13.7506 24.2106 11.3711 23.6435 9.09658C22.9544 6.33337 21.3051 3.90527 18.9904 2.24632C16.6757 0.587368 13.8464 -0.194299 11.0083 0.041047C8.17023 0.276393 5.50835 1.51341 3.49849 3.53097C1.48864 5.54854 0.261819 8.21513 0.0373387 11.0541C-0.187142 13.8931 0.605349 16.7193 2.27315 19.0277C3.94095 21.336 6.37534 22.976 9.14117 23.6545C11.4178 24.2129 13.7969 24.09 15.9875 23.3181C16.7707 23.0422 17.0694 22.1291 16.6978 21.3866V21.3866C16.3261 20.644 15.4245 20.3569 14.6305 20.5998C13.0895 21.0711 11.4405 21.1224 9.85753 20.7341C7.78477 20.2257 5.96038 18.9966 4.7105 17.2667C3.46061 15.5368 2.86671 13.4187 3.03494 11.2911C3.20317 9.16354 4.12257 7.16514 5.6288 5.65314C7.13503 4.14113 9.12989 3.21409 11.2568 3.03772C13.3837 2.86134 15.504 3.44714 17.2388 4.69039C18.9735 5.93365 20.2095 7.75331 20.7258 9.82412C21.1202 11.4056 21.0752 13.0547 20.6098 14.5975C20.3699 15.3925 20.6605 16.293 21.4045 16.6618V16.6618Z" fill="#ddd"/>
<path d="M12.0003 7V17V12M7 12L12.0003 12M17 12L12.0003 12" stroke="rgb(0, 122, 255)" stroke-width="3" stroke-linecap="round" stroke-linejoin="round"/>
</svg>
