<svg width="24" height="26" viewBox="0 0 24 26" fill="none" xmlns="http://www.w3.org/2000/svg">
<path d="M23.1582 12.5592L12.7558 22.9616C11.4815 24.236 9.75306 24.9519 7.95084 24.9519C6.1486 24.9519 4.42019 24.236 3.14582 22.9616C1.87145 21.6872 1.15552 19.9588 1.15552 18.1565C1.15552 16.3543 1.87145 14.626 3.14582 13.3515L13.5482 2.94918C14.3978 2.0996 15.5501 1.62231 16.7515 1.62231C17.953 1.62231 19.1053 2.0996 19.9548 2.94918C20.8045 3.79877 21.2818 4.95104 21.2818 6.15252C21.2818 7.35401 20.8045 8.50629 19.9548 9.35586L9.54119 19.7582C9.1164 20.183 8.54025 20.4216 7.93952 20.4216C7.33877 20.4216 6.76263 20.183 6.33785 19.7582C5.91306 19.3334 5.6744 18.7574 5.6744 18.1565C5.6744 17.5558 5.91306 16.9797 6.33785 16.5549L15.9478 6.95619" stroke="black" stroke-opacity="0.3" stroke-width="1.5" stroke-linecap="round" stroke-linejoin="round"/>
</svg>
