<svg width="45" height="45" viewBox="0 0 45 45" fill="none" xmlns="http://www.w3.org/2000/svg">
<circle cx="22.5" cy="22.5" r="22.5" fill="#D9D9D9"/>
<mask id="mask0_163_176" style="mask-type:alpha" maskUnits="userSpaceOnUse" x="10" y="8" width="25" height="29">
<path d="M29.8294 15.2555C29.8294 19.2563 26.548 22.4997 22.5002 22.4997C18.4523 22.4997 15.1709 19.2563 15.1709 15.2555C15.1709 11.2547 18.4523 8.01135 22.5002 8.01135C26.548 8.01135 29.8294 11.2547 29.8294 15.2555Z" fill="#006FFD"/>
<path d="M10.2847 32.1592C10.2847 28.1583 13.5661 24.915 17.6139 24.915H27.3863C31.4341 24.915 34.7155 28.1583 34.7155 32.1592V33.3665C34.7155 35.367 33.0748 36.9886 31.0509 36.9886H13.9493C11.9254 36.9886 10.2847 35.367 10.2847 33.3665V32.1592Z" fill="#006FFD"/>
</mask>
<g mask="url(#mask0_163_176)">
<rect x="7.84155" y="8.01025" width="29.317" height="28.9766" fill="#868686"/>
</g>
</svg>
