<svg width="50" height="60" viewBox="0 0 50 60" fill="none" xmlns="http://www.w3.org/2000/svg">
<path d="M45 0H5V5H45V0ZM5 60H45V55H5V60ZM45 10H5C2.2375 10 0 12.2375 0 15V45C0 47.7625 2.2375 50 5 50H45C47.7625 50 50 47.7625 50 45V15C50 12.2375 47.7625 10 45 10ZM25 16.875C28.1 16.875 30.625 19.4 30.625 22.5C30.625 23.9918 30.0324 25.4226 28.9775 26.4775C27.9226 27.5324 26.4918 28.125 25 28.125C23.5082 28.125 22.0774 27.5324 21.0225 26.4775C19.9676 25.4226 19.375 23.9918 19.375 22.5C19.375 19.4 21.9 16.875 25 16.875ZM37.5 42.5H12.5V38.75C12.5 34.5875 20.8375 32.5 25 32.5C29.1625 32.5 37.5 34.5875 37.5 38.75V42.5Z" fill="white"/>
</svg>
