<svg width="60" height="60" viewBox="0 0 60 60" fill="none" xmlns="http://www.w3.org/2000/svg">
<path d="M20.625 33.75H11.875C8.7684 33.75 6.25 36.2684 6.25 39.375V48.125C6.25 51.2316 8.7684 53.75 11.875 53.75H20.625C23.7316 53.75 26.25 51.2316 26.25 48.125V39.375C26.25 36.2684 23.7316 33.75 20.625 33.75Z" stroke="white" stroke-width="2"/>
<path d="M20.625 6.25H11.875C8.7684 6.25 6.25 8.7684 6.25 11.875V20.625C6.25 23.7316 8.7684 26.25 11.875 26.25H20.625C23.7316 26.25 26.25 23.7316 26.25 20.625V11.875C26.25 8.7684 23.7316 6.25 20.625 6.25Z" stroke="white" stroke-width="2"/>
<path d="M48.125 33.75H39.375C36.2684 33.75 33.75 36.2684 33.75 39.375V48.125C33.75 51.2316 36.2684 53.75 39.375 53.75H48.125C51.2316 53.75 53.75 51.2316 53.75 48.125V39.375C53.75 36.2684 51.2316 33.75 48.125 33.75Z" stroke="white" stroke-width="2"/>
<path d="M48.125 6.25H39.375C36.2684 6.25 33.75 8.7684 33.75 11.875V20.625C33.75 23.7316 36.2684 26.25 39.375 26.25H48.125C51.2316 26.25 53.75 23.7316 53.75 20.625V11.875C53.75 8.7684 51.2316 6.25 48.125 6.25Z" stroke="white" stroke-width="2"/>
</svg>
