<svg width="50" height="44" viewBox="0 0 50 44" fill="none" xmlns="http://www.w3.org/2000/svg">
<path d="M46.25 5.75H21.9625L20.5625 2.8625C20.255 2.22903 19.7754 1.69493 19.1785 1.32133C18.5817 0.947732 17.8917 0.749735 17.1875 0.75H3.75C2.75544 0.75 1.80161 1.14509 1.09835 1.84835C0.395088 2.55161 0 3.50544 0 4.5V39.5C0 40.4946 0.395088 41.4484 1.09835 42.1516C1.80161 42.8549 2.75544 43.25 3.75 43.25H46.25C47.2446 43.25 48.1984 42.8549 48.9017 42.1516C49.6049 41.4484 50 40.4946 50 39.5V9.5C50 8.50544 49.6049 7.55161 48.9017 6.84835C48.1984 6.14509 47.2446 5.75 46.25 5.75ZM47.5 39.5C47.5 39.8315 47.3683 40.1495 47.1339 40.3839C46.8995 40.6183 46.5815 40.75 46.25 40.75H3.75C3.41848 40.75 3.10054 40.6183 2.86612 40.3839C2.6317 40.1495 2.5 39.8315 2.5 39.5V4.5C2.5 4.16848 2.6317 3.85054 2.86612 3.61612C3.10054 3.3817 3.41848 3.25 3.75 3.25H17.1875C17.4218 3.24953 17.6515 3.31491 17.8504 3.43868C18.0493 3.56245 18.2094 3.73962 18.3125 3.95L21.8 11.1375C22.1075 11.771 22.5871 12.3051 23.184 12.6787C23.7808 13.0523 24.4708 13.2503 25.175 13.25H43.75C44.0815 13.25 44.3995 13.1183 44.6339 12.8839C44.8683 12.6495 45 12.3315 45 12C45 11.6685 44.8683 11.3505 44.6339 11.1161C44.3995 10.8817 44.0815 10.75 43.75 10.75H25.175C24.9407 10.7505 24.711 10.6851 24.5121 10.5613C24.3132 10.4376 24.1531 10.2604 24.05 10.05L23.175 8.25H46.25C46.5815 8.25 46.8995 8.3817 47.1339 8.61612C47.3683 8.85054 47.5 9.16848 47.5 9.5V39.5Z" fill="white"/>
</svg>
