<svg width="29" height="35" viewBox="0 0 29 35" fill="none" xmlns="http://www.w3.org/2000/svg">
<path d="M4.42313 0C1.98461 0 0 1.89965 0 4.23379V30.7662C0 33.1003 1.98461 35 4.42313 35H24.5769C27.0154 35 29 33.1003 29 30.7662V10.3093C29 10.2924 28.9849 10.2803 28.9823 10.2634C28.9771 10.1217 28.9189 9.98637 28.8184 9.88207L18.7315 0.226897C18.6285 0.133091 18.4949 0.0759977 18.3532 0.0651724C18.2902 0.0482759 18.2397 0 18.1767 0H4.42313ZM4.42313 1.2069H17.6522V6.71276C17.6522 9.03 19.6191 10.9128 22.0375 10.9128H27.7391V30.7662C27.7391 32.4341 26.3194 33.7931 24.5769 33.7931H4.42313C3.58486 33.7918 2.7813 33.4725 2.18855 32.9051C1.5958 32.3378 1.2622 31.5686 1.26087 30.7662V4.23379C1.26087 2.56586 2.68313 1.2069 4.42313 1.2069ZM18.908 2.15552C20.8523 4.00448 24.7483 7.70724 26.8439 9.70586H22.0375C20.3151 9.70586 18.9105 8.36138 18.9105 6.71276L18.908 2.15552Z" fill="#231F20"/>
</svg>
