<svg width="60" height="60" viewBox="0 0 60 60" fill="none" xmlns="http://www.w3.org/2000/svg">
<path d="M26.7526 3.95992C22.4393 4.54045 18.3602 6.26522 14.9388 8.95509C11.5174 11.645 8.87864 15.2018 7.29653 19.2562C5.71442 23.3106 5.2467 27.7147 5.94193 32.0109C6.63717 36.3072 8.47002 40.3389 11.2501 43.6874V50.5518C11.249 50.9543 11.3509 51.3504 11.5461 51.7024C11.7413 52.0544 12.0234 52.3506 12.3654 52.5628C12.7075 52.775 13.0981 52.8961 13.5002 52.9146C13.9023 52.9332 14.3025 52.8485 14.6626 52.6687L19.6557 50.1712C23.8871 52.1758 28.6094 52.9093 33.2495 52.2824C39.6574 51.4209 45.4607 48.0491 49.3826 42.9088C53.3045 37.7685 55.0238 31.2807 54.1623 24.8727C53.3007 18.4648 49.9289 12.6615 44.7886 8.7396C39.6483 4.81768 33.1606 3.09838 26.7526 3.95992Z" stroke="white" stroke-width="3" stroke-linecap="round" stroke-linejoin="round"/>
<path d="M16.9669 34.0556L25.575 21.8062C25.6585 21.6576 25.7727 21.5284 25.9101 21.4274C26.0474 21.3264 26.2047 21.2557 26.3715 21.2203C26.5382 21.1848 26.7106 21.1852 26.8772 21.2216C27.0438 21.258 27.2007 21.3295 27.3375 21.4312L33.1031 25.7568C33.2943 25.8998 33.5238 25.9825 33.7622 25.9946C34.0006 26.0066 34.2372 25.9473 34.4419 25.8243L41.4637 20.8631C41.6864 20.7308 41.9459 20.6742 42.2035 20.7016C42.4611 20.729 42.7028 20.839 42.8927 21.0151C43.0826 21.1913 43.2104 21.4242 43.257 21.6789C43.3036 21.9337 43.2665 22.1968 43.1512 22.4287L36.2006 34.455C36.1267 34.6025 36.0232 34.7332 35.8965 34.8389C35.7698 34.9446 35.6227 35.023 35.4643 35.0693C35.306 35.1156 35.1398 35.1287 34.9761 35.1078C34.8124 35.087 34.6548 35.0326 34.5131 34.9481L26.8125 30.3393C26.6397 30.2352 26.4433 30.1765 26.2417 30.1686C26.0401 30.1607 25.8398 30.204 25.6594 30.2943L18.5456 35.7318C18.3144 35.8477 18.0521 35.8858 17.7975 35.8407C17.5429 35.7956 17.3097 35.6695 17.1324 35.4813C16.9551 35.2931 16.8433 35.0527 16.8134 34.7959C16.7836 34.539 16.8374 34.2794 16.9669 34.0556Z" fill="white"/>
</svg>
