<svg width="68" height="84" viewBox="0 0 68 84" fill="none" xmlns="http://www.w3.org/2000/svg">
<path d="M34 83.25C35.9891 83.25 37.8968 82.4598 39.3033 81.0533C40.7098 79.6468 41.5 77.7391 41.5 75.75H26.5C26.5 77.7391 27.2902 79.6468 28.6967 81.0533C30.1032 82.4598 32.0109 83.25 34 83.25ZM3.99999 68.25H64C64.7416 68.2498 65.4664 68.0298 66.083 67.6178C66.6995 67.2057 67.18 66.6201 67.4638 65.935C67.7475 65.2498 67.8218 64.496 67.6772 63.7686C67.5326 63.0413 67.1755 62.3732 66.6512 61.8487L60.25 55.4475V34.5C60.2379 28.1944 57.9584 22.1034 53.8276 17.3392C49.6968 12.575 43.9903 9.45542 37.75 8.55V4.5C37.75 3.50544 37.3549 2.55161 36.6516 1.84835C35.9484 1.14509 34.9946 0.75 34 0.75C33.0054 0.75 32.0516 1.14509 31.3483 1.84835C30.6451 2.55161 30.25 3.50544 30.25 4.5V8.55C24.0097 9.45542 18.3032 12.575 14.1724 17.3392C10.0416 22.1034 7.76205 28.1944 7.74999 34.5V55.4475L1.34874 61.8487C0.824459 62.3732 0.467435 63.0413 0.322807 63.7686C0.178178 64.496 0.25244 65.2498 0.536202 65.935C0.819965 66.6201 1.30049 67.2057 1.91702 67.6178C2.53356 68.0298 3.25843 68.2498 3.99999 68.25ZM14.1512 59.6513C14.8546 58.9482 15.2498 57.9945 15.25 57V34.5C15.25 29.5272 17.2254 24.7581 20.7417 21.2417C24.258 17.7254 29.0272 15.75 34 15.75C38.9728 15.75 43.7419 17.7254 47.2582 21.2417C50.7746 24.7581 52.75 29.5272 52.75 34.5V57C52.7502 57.9945 53.1454 58.9482 53.8487 59.6513L54.9475 60.75H13.0525L14.1512 59.6513Z" fill="rgb(0, 122, 255)"/>
</svg>
