<svg width="28" height="29" viewBox="0 0 28 29" fill="none" xmlns="http://www.w3.org/2000/svg">
<path d="M7.59199 7.24515C7.59199 5.97772 7.96782 4.73875 8.67197 3.68492C9.37611 2.6311 10.3769 1.80974 11.5479 1.32471C12.7188 0.839691 14.0073 0.712786 15.2504 0.960049C16.4935 1.20731 17.6353 1.81764 18.5315 2.71384C19.4277 3.61005 20.038 4.75189 20.2853 5.99496C20.5326 7.23804 20.4057 8.52652 19.9206 9.69747C19.4356 10.8684 18.6143 11.8692 17.5604 12.5734C16.5066 13.2775 15.2676 13.6534 14.0002 13.6534C12.3006 13.6534 10.6707 12.9782 9.46891 11.7764C8.26714 10.5747 7.59199 8.94471 7.59199 7.24515ZM24.6806 28.6059H3.31984C2.47005 28.6059 1.65507 28.2683 1.05419 27.6674C0.453298 27.0666 0.115723 26.2516 0.115723 25.4018C0.115723 22.8524 1.12845 20.4075 2.93111 18.6048C4.73378 16.8022 7.17871 15.7895 9.72806 15.7895H18.2724C20.8217 15.7895 23.2667 16.8022 25.0693 18.6048C26.872 20.4075 27.8847 22.8524 27.8847 25.4018C27.8847 26.2516 27.5471 27.0666 26.9462 27.6674C26.3454 28.2683 25.5304 28.6059 24.6806 28.6059Z" fill="white"/>
</svg>
