<svg width="16" height="16" viewBox="0 0 16 16" fill="none" xmlns="http://www.w3.org/2000/svg">
<path d="M15.5138 14.3208L12.6794 11.4967C13.5939 10.3324 14.0901 8.89471 14.0882 7.41464C14.0882 6.09653 13.6971 4.80801 12.9643 3.71204C12.2315 2.61606 11.1899 1.76185 9.97129 1.25743C8.75266 0.75301 7.41173 0.62103 6.11804 0.878182C4.82436 1.13533 3.63604 1.77007 2.70334 2.70212C1.77065 3.63417 1.13548 4.82167 0.878148 6.11446C0.620819 7.40725 0.75289 8.74726 1.25766 9.96504C1.76243 11.1828 2.61723 12.2237 3.71396 12.956C4.81069 13.6883 6.1001 14.0792 7.41912 14.0792C8.90022 14.081 10.3389 13.5851 11.504 12.6713L14.33 15.5037C14.4075 15.5818 14.4997 15.6438 14.6013 15.6861C14.7029 15.7283 14.8118 15.7501 14.9219 15.7501C15.0319 15.7501 15.1409 15.7283 15.2425 15.6861C15.3441 15.6438 15.4363 15.5818 15.5138 15.5037C15.5919 15.4263 15.6539 15.3341 15.6962 15.2326C15.7386 15.1311 15.7604 15.0222 15.7604 14.9122C15.7604 14.8023 15.7386 14.6934 15.6962 14.5918C15.6539 14.4903 15.5919 14.3982 15.5138 14.3208ZM2.41728 7.41464C2.41728 6.42606 2.71064 5.45967 3.26025 4.63769C3.80985 3.81571 4.59104 3.17505 5.505 2.79673C6.41897 2.41842 7.42467 2.31943 8.39493 2.5123C9.3652 2.70516 10.2564 3.18121 10.956 3.88025C11.6555 4.57929 12.1319 5.46991 12.3249 6.43951C12.5179 7.4091 12.4188 8.41411 12.0402 9.32744C11.6616 10.2408 11.0205 11.0214 10.198 11.5707C9.37545 12.1199 8.40839 12.413 7.41912 12.413C6.09255 12.413 4.82032 11.8864 3.88229 10.949C2.94426 10.0117 2.41728 8.7403 2.41728 7.41464Z" fill="black"/>
</svg>
