<svg width="68" height="68" viewBox="0 0 68 68" fill="none" xmlns="http://www.w3.org/2000/svg">
<path d="M22.75 22.75C22.7419 20.2622 21.9094 17.8472 20.3828 15.8829C18.8561 13.9186 16.7213 12.5157 14.3125 11.8938V3.0625C14.3125 2.31658 14.0162 1.60121 13.4887 1.07376C12.9613 0.546317 12.2459 0.25 11.5 0.25C10.7541 0.25 10.0387 0.546317 9.51127 1.07376C8.98382 1.60121 8.68751 2.31658 8.68751 3.0625V11.8938C6.30428 12.5414 4.20039 13.9553 2.70044 15.9173C1.20048 17.8793 0.387817 20.2803 0.387817 22.75C0.387817 25.2197 1.20048 27.6207 2.70044 29.5827C4.20039 31.5447 6.30428 32.9586 8.68751 33.6063V64.9375C8.68751 65.6834 8.98382 66.3988 9.51127 66.9262C10.0387 67.4537 10.7541 67.75 11.5 67.75C12.2459 67.75 12.9613 67.4537 13.4887 66.9262C14.0162 66.3988 14.3125 65.6834 14.3125 64.9375V33.6063C16.7213 32.9843 18.8561 31.5814 20.3828 29.6171C21.9094 27.6528 22.7419 25.2378 22.75 22.75ZM11.5 28.375C10.3875 28.375 9.29995 28.0451 8.37492 27.427C7.4499 26.8089 6.72893 25.9304 6.30318 24.9026C5.87744 23.8748 5.76605 22.7438 5.98309 21.6526C6.20013 20.5615 6.73586 19.5592 7.52253 18.7725C8.3092 17.9859 9.31148 17.4501 10.4026 17.2331C11.4938 17.016 12.6248 17.1274 13.6526 17.5532C14.6804 17.9789 15.5589 18.6999 16.177 19.6249C16.7951 20.5499 17.125 21.6375 17.125 22.75C17.125 24.2418 16.5324 25.6726 15.4775 26.7275C14.4226 27.7824 12.9918 28.375 11.5 28.375ZM36.8125 40.0187V3.0625C36.8125 2.31658 36.5162 1.60121 35.9887 1.07376C35.4613 0.546317 34.7459 0.25 34 0.25C33.2541 0.25 32.5387 0.546317 32.0113 1.07376C31.4838 1.60121 31.1875 2.31658 31.1875 3.0625V40.0187C28.8043 40.6664 26.7004 42.0803 25.2004 44.0423C23.7005 46.0043 22.8878 48.4053 22.8878 50.875C22.8878 53.3447 23.7005 55.7457 25.2004 57.7077C26.7004 59.6697 28.8043 61.0836 31.1875 61.7313V64.9375C31.1875 65.6834 31.4838 66.3988 32.0113 66.9262C32.5387 67.4537 33.2541 67.75 34 67.75C34.7459 67.75 35.4613 67.4537 35.9887 66.9262C36.5162 66.3988 36.8125 65.6834 36.8125 64.9375V61.7313C39.1957 61.0836 41.2996 59.6697 42.7996 57.7077C44.2995 55.7457 45.1122 53.3447 45.1122 50.875C45.1122 48.4053 44.2995 46.0043 42.7996 44.0423C41.2996 42.0803 39.1957 40.6664 36.8125 40.0187ZM34 56.5C32.8875 56.5 31.7999 56.1701 30.8749 55.552C29.9499 54.9339 29.2289 54.0554 28.8032 53.0276C28.3774 51.9998 28.266 50.8688 28.4831 49.7776C28.7001 48.6865 29.2359 47.6842 30.0225 46.8975C30.8092 46.1109 31.8115 45.5751 32.9026 45.3581C33.9938 45.141 35.1248 45.2524 36.1526 45.6782C37.1804 46.1039 38.0589 46.8249 38.677 47.7499C39.2951 48.6749 39.625 49.7625 39.625 50.875C39.625 52.3668 39.0324 53.7976 37.9775 54.8525C36.9226 55.9074 35.4918 56.5 34 56.5ZM67.75 17.125C67.7419 14.6372 66.9094 12.2222 65.3828 10.2579C63.8561 8.29356 61.7213 6.89069 59.3125 6.26875V3.0625C59.3125 2.31658 59.0162 1.60121 58.4887 1.07376C57.9613 0.546317 57.2459 0.25 56.5 0.25C55.7541 0.25 55.0387 0.546317 54.5113 1.07376C53.9838 1.60121 53.6875 2.31658 53.6875 3.0625V6.26875C51.3043 6.91642 49.2004 8.33032 47.7004 10.2923C46.2005 12.2543 45.3878 14.6553 45.3878 17.125C45.3878 19.5947 46.2005 21.9957 47.7004 23.9577C49.2004 25.9197 51.3043 27.3336 53.6875 27.9812V64.9375C53.6875 65.6834 53.9838 66.3988 54.5113 66.9262C55.0387 67.4537 55.7541 67.75 56.5 67.75C57.2459 67.75 57.9613 67.4537 58.4887 66.9262C59.0162 66.3988 59.3125 65.6834 59.3125 64.9375V27.9812C61.7213 27.3593 63.8561 25.9564 65.3828 23.9921C66.9094 22.0278 67.7419 19.6128 67.75 17.125ZM56.5 22.75C55.3875 22.75 54.2999 22.4201 53.3749 21.802C52.4499 21.1839 51.7289 20.3054 51.3032 19.2776C50.8774 18.2498 50.766 17.1188 50.9831 16.0276C51.2001 14.9365 51.7359 13.9342 52.5225 13.1475C53.3092 12.3609 54.3115 11.8251 55.4026 11.6081C56.4938 11.391 57.6248 11.5024 58.6526 11.9282C59.6804 12.3539 60.5589 13.0749 61.177 13.9999C61.7951 14.9249 62.125 16.0125 62.125 17.125C62.125 18.6168 61.5324 20.0476 60.4775 21.1025C59.4226 22.1574 57.9918 22.75 56.5 22.75Z" fill="rgb(0, 122, 255)"/>
</svg>
