<svg width="43" height="46" viewBox="0 0 43 46" fill="none" xmlns="http://www.w3.org/2000/svg">
<path d="M20.2651 17.3391H22.2243V34.9718C22.2243 35.5128 21.7857 35.9514 21.2447 35.9514C20.7037 35.9514 20.2651 35.5128 20.2651 34.9718V17.3391Z" fill="rgb(0, 122, 255)"/>
<path d="M5.87646 9.38062H7.83565V26.8908C7.83565 27.4318 7.39707 27.8704 6.85606 27.8704C6.31504 27.8704 5.87646 27.4318 5.87646 26.8908V9.38062Z" fill="rgb(0, 122, 255)"/>
<path d="M34.7131 9.56323H36.6723V26.8898C36.6723 27.4308 36.2337 27.8694 35.6927 27.8694C35.1517 27.8694 34.7131 27.4308 34.7131 26.8898V9.56323Z" fill="rgb(0, 122, 255)"/>
<path d="M35.5391 8.96289L36.5187 10.6596L22.8273 18.5643C22.3587 18.8348 21.7596 18.6743 21.4891 18.2058C21.2186 17.7372 21.3791 17.1381 21.8477 16.8676L35.5391 8.96289Z" fill="rgb(0, 122, 255)"/>
<path d="M35.5391 13.2366L36.5187 14.9333L22.8273 22.838C22.3587 23.1085 21.7596 22.948 21.4891 22.4795C21.2186 22.0109 21.3791 21.4118 21.8477 21.1413L35.5391 13.2366Z" fill="rgb(0, 122, 255)"/>
<path d="M35.6414 26.155L36.6209 27.8517L22.1236 36.2218C21.655 36.4923 21.0559 36.3318 20.7854 35.8632C20.5149 35.3947 20.6754 34.7956 21.144 34.5251L35.6414 26.155Z" fill="rgb(0, 122, 255)"/>
<path d="M6.81055 11.1428L7.79014 9.44612L20.5286 16.8007C20.9972 17.0712 21.1577 17.6703 20.8872 18.1388C20.6167 18.6074 20.0176 18.7679 19.549 18.4974L6.81055 11.1428Z" fill="rgb(0, 122, 255)"/>
<path d="M20.2546 2.23511L21.2342 0.538405L35.8193 8.95909C36.2878 9.2296 36.4483 9.8287 36.1778 10.2972C35.9073 10.7658 35.3082 10.9263 34.8397 10.6558L20.2546 2.23511Z" fill="rgb(0, 122, 255)"/>
<path d="M21.219 0.529785L22.1986 2.22649L7.70484 10.5945C7.23631 10.865 6.6372 10.7044 6.3667 10.2359C6.09619 9.76737 6.25672 9.16826 6.72525 8.89775L21.219 0.529785Z" fill="rgb(0, 122, 255)"/>
<path d="M6.6731 15.178L7.65269 13.4813L20.3912 20.8359C20.8597 21.1064 21.0202 21.7055 20.7497 22.174C20.4792 22.6425 19.8801 22.8031 19.4116 22.5326L6.6731 15.178Z" fill="rgb(0, 122, 255)"/>
<path d="M5.87646 27.8521L6.85606 26.1553L21.3904 34.5467C21.8589 34.8172 22.0194 35.4163 21.7489 35.8849C21.4784 36.3534 20.8793 36.5139 20.4108 36.2434L5.87646 27.8521Z" fill="rgb(0, 122, 255)"/>
<path d="M1.27633 34.4034C0.807798 34.1329 0.647268 33.5338 0.917774 33.0652C1.18828 32.5967 1.78739 32.4362 2.25592 32.7067L21.3862 43.7516C21.8548 44.0221 22.0153 44.6212 21.7448 45.0897C21.4743 45.5582 20.8752 45.7188 20.4066 45.4483L1.27633 34.4034Z" fill="rgb(0, 122, 255)"/>
<path d="M40.6092 32.462C41.0777 32.1915 41.6768 32.352 41.9473 32.8205C42.2178 33.2891 42.0573 33.8882 41.5888 34.1587L22.0922 45.415C21.6236 45.6855 21.0245 45.525 20.754 45.0565C20.4835 44.5879 20.6441 43.9888 21.1126 43.7183L40.6092 32.462Z" fill="rgb(0, 122, 255)"/>
</svg>
